<svg xmlns="http://www.w3.org/2000/svg" xmlns:xlink="http://www.w3.org/1999/xlink" viewBox="0 0 77.5 77.38"><defs><style>.cls-1{fill:#f2f2f2;}.cls-2{fill:url(#Nepojmenovaný_přechod_8);}.cls-3{fill:url(#Bílá_černá);}.cls-4{fill:url(#Bílá_černá-2);}.cls-5{fill:url(#Bílá_černá-3);}.cls-6{fill:url(#Bílá_černá-4);}.cls-7{fill:url(#Bílá_černá-5);}.cls-8{fill:url(#Bílá_černá-6);}.cls-9{fill:url(#Bílá_černá-7);}.cls-10{fill:#666;}.cls-11{fill:url(#Nepojmenovaný_přechod_7);}.cls-12{fill:url(#Nepojmenovaný_přechod_7-2);}.cls-13{fill:#d1d1d1;}.cls-14{fill:url(#Bílá_černá-8);}.cls-15{fill:url(#Bílá_černá-9);}.cls-16{fill:url(#Bílá_černá-10);}</style><linearGradient id="Nepojmenovaný_přechod_8" x1="27.57" y1="-56.41" x2="44.76" y2="102.09" gradientUnits="userSpaceOnUse"><stop offset="0" stop-color="#fff"/><stop offset="0.99"/></linearGradient><linearGradient id="Bílá_černá" x1="24.05" y1="-56.03" x2="41.64" y2="106.12" gradientUnits="userSpaceOnUse"><stop offset="0" stop-color="#fff"/><stop offset="1"/></linearGradient><linearGradient id="Bílá_černá-2" x1="-0.41" y1="-53.37" x2="14.67" y2="85.6" xlink:href="#Bílá_černá"/><linearGradient id="Bílá_černá-3" x1="22.07" y1="-55.81" x2="37.14" y2="83.17" xlink:href="#Bílá_černá"/><linearGradient id="Bílá_černá-4" x1="20.92" y1="-55.69" x2="36" y2="83.29" xlink:href="#Bílá_černá"/><linearGradient id="Bílá_černá-5" x1="46.5" y1="-58.46" x2="61.58" y2="80.52" xlink:href="#Bílá_černá"/><linearGradient id="Bílá_černá-6" x1="45.17" y1="-58.32" x2="60.24" y2="80.66" xlink:href="#Bílá_černá"/><linearGradient id="Bílá_černá-7" x1="64.48" y1="-60.41" x2="79.56" y2="78.57" xlink:href="#Bílá_černá"/><linearGradient id="Nepojmenovaný_přechod_7" x1="36.98" y1="23.56" x2="40.43" y2="69.39" gradientUnits="userSpaceOnUse"><stop offset="0" stop-color="#fff"/><stop offset="1" stop-color="#202020"/></linearGradient><linearGradient id="Nepojmenovaný_přechod_7-2" x1="35.58" y1="23.66" x2="39.03" y2="69.5" xlink:href="#Nepojmenovaný_přechod_7"/><linearGradient id="Bílá_černá-8" x1="63.02" y1="-60.25" x2="78.09" y2="78.72" xlink:href="#Bílá_černá"/><linearGradient id="Bílá_černá-9" x1="28.68" y1="-56.53" x2="44.68" y2="90.92" xlink:href="#Bílá_černá"/><linearGradient id="Bílá_černá-10" x1="27.52" y1="-56.4" x2="45.03" y2="105.01" xlink:href="#Bílá_černá"/></defs><title>AF_Icon_What We Do_FnD-Location Sound V2</title><g id="Vrstva_2" data-name="Vrstva 2"><g id="Vrstva_1-2" data-name="Vrstva 1"><polygon class="cls-1" points="73.42 0.57 3.51 10.23 15.47 18.97 76.64 9.77 73.42 0.57"/><path class="cls-2" d="M74.88,30.94q0,20,0,40a13.46,13.46,0,0,1-.07,2,5.09,5.09,0,0,1-5.21,4.42c-6.79,0-13.59,0-20.38,0H8.1a5.19,5.19,0,0,1-3.95-1.51.56.56,0,0,1,.06-.7,6.89,6.89,0,0,1,.52-.56C7,72.35,9.24,70.1,11.48,67.84a3,3,0,0,1,2.26-.94q26.3,0,52.58,0A11.31,11.31,0,0,0,69,66.53a1,1,0,0,0,0-1.6,13.41,13.41,0,0,0-2.67-.37H16.72c-.42,0-1,.22-1.21-.24s.32-.8.63-1.11c2.27-2.3,4.56-4.58,6.85-6.87.39-.39.86-.7,1.24-1.1a5,5,0,0,1,1.45-.1h41.8a5.79,5.79,0,0,0,1.1,0,.95.95,0,0,0,0-1.85,5.26,5.26,0,0,0-1-.05c-3.68,0-7.35,0-11,0-1.42,0-1.49-.08-1.5-1.49,0-3.1,0-6.19,0-9.29,0-.25,0-.51,0-.76a.75.75,0,0,1,.75-.76c.37,0,.74,0,1.11,0H67.53c.26,0,.51,0,.77,0,1-.08,1.29-.68.79-1.57a5.78,5.78,0,0,0-2.62-.5h-24c-.39,0-.93.21-1.14-.24s.3-.77.59-1.06c1.92-2,3.88-3.89,5.82-5.84a2.76,2.76,0,0,1,2.2-.92,13.65,13.65,0,0,0,3.72-.15,1.43,1.43,0,0,1,.82.07c4.07-.07,8.13,0,12.19,0a3.7,3.7,0,0,0,.48-.06,68.54,68.54,0,0,0,6.87.21C74.28,30.74,74.63,30.64,74.88,30.94Z"/><path class="cls-3" d="M54.36,30.93H49.51a1.3,1.3,0,0,0-1,.36l-6.9,6.91a1.6,1.6,0,0,0-.13.21c.26.24.57.13.84.13h26.4c.34,0,.7-.09,1,.17a1,1,0,0,1-.81.31c-.46,0-.93,0-1.39,0H10.08a5.73,5.73,0,0,0-1.17.05.86.86,0,0,0,0,1.71,4.53,4.53,0,0,0,.9,0h11c1.4,0,1.48.08,1.48,1.5q0,4.68,0,9.36v.34c0,.95-.17,1.08-1.1,1.12-.34,0-.69,0-1,0H9.85a5.43,5.43,0,0,0-.9,0,.88.88,0,0,0-.8,1,.86.86,0,0,0,.78.91,6.25,6.25,0,0,0,1,0c4.39,0,8.77,0,13.16,0,.41,0,.9-.14,1.2.33-.9.93-1.8,1.86-2.71,2.78-1.79,1.8-3.6,3.59-5.39,5.4-.16.17-.51.32-.41.57s.46.12.7.12H68.58a1.68,1.68,0,0,1,1.14.17,1,1,0,0,1-.82.3H10.13a5.79,5.79,0,0,0-1.25.06.8.8,0,0,0-.71.81.81.81,0,0,0,.72.88,5.73,5.73,0,0,0,1.24.06H67.59c.44,0,.88,0,1.32,0a1,1,0,0,1,.81.31c-.34.28-.75.17-1.13.17q-27.4,0-54.8,0a2.5,2.5,0,0,0-1.94.8C9.5,70.35,7.1,72.71,4.72,75.1a1.57,1.57,0,0,0-.57.77,4.2,4.2,0,0,1-1.51-3c-.21-3.28-.08-6.55-.09-9.83,0-10.36,0-20.73,0-31.09,0-1.23,0-1-1-1a1,1,0,0,1-.6-.11c.26-.47.73-.34,1.12-.35,2.49,0,5,0,7.46,0h5.11a9.9,9.9,0,0,0,3.72,0,2.67,2.67,0,0,0,1.09,0c3.87,0,7.75,0,11.62,0a2.74,2.74,0,0,0,1.42.12h10a7.61,7.61,0,0,0,1.58-.14,4.64,4.64,0,0,0,1.44,0c2.55,0,5.1,0,7.66,0a1.58,1.58,0,0,1,1.12.21A.24.24,0,0,1,54.36,30.93Z"/><path class="cls-4" d="M14.7,30.81H.94C.18,30.6,0,30,0,29.32V15.54c0-1.25,0-2.49,0-3.74s.56-1.6,1.65-1.49a11.41,11.41,0,0,0,2.26-.24,1,1,0,0,1,.84.16q5.46,4.14,11,8.26c.07.05.12.13.29.3l-7.09,1a.91.91,0,0,0,1,.77c1.8,0,3.61,0,5.41,0a.62.62,0,0,1,.14.14c.12.37-.17.55-.36.76-.69.72-1.41,1.41-2.1,2.12s-.59.69-.14,1.35c.83,1.2,1.69,2.37,2.53,3.56a1.87,1.87,0,0,1,.4,1.15C15.83,30.37,15.46,30.74,14.7,30.81Z"/><path class="cls-5" d="M41.44,15.22l-4.13.59L29.7,16.89a1.71,1.71,0,0,1-1.45-.37c-3.4-2.59-6.82-5.14-10.23-7.71-.2-.16-.39-.32-.68-.54A15.85,15.85,0,0,1,20,7.81c3.15-.46,6.31-.88,9.46-1.33a1.08,1.08,0,0,1,.89.19l10.84,8.18C41.31,14.93,41.46,15,41.44,15.22Z"/><path class="cls-6" d="M31.07,30.81H18.25c-.19-.33.06-.53.24-.72,2.93-3,5.89-5.9,8.84-8.85.2-.2.46-.3.67-.48s.3-.11.44-.19H41.15a.47.47,0,0,1,.14.14c.11.34-.13.52-.32.71-3,3-6,6-9,9A1.26,1.26,0,0,1,31.07,30.81Z"/><path class="cls-7" d="M64.6,12,61,12.48c-1.92.27-3.84.53-5.76.82a1.74,1.74,0,0,1-1.46-.38C50.4,10.33,47,7.77,43.57,5.2l-.67-.53a15.87,15.87,0,0,1,2.61-.45c2.31-.34,4.62-.65,6.93-1a1.11,1.11,0,0,1,.91.16l10.89,8.23A4.64,4.64,0,0,1,64.6,12Z"/><path class="cls-8" d="M54.32,30.8H44.07c-.24-.47.17-.67.41-.91,2.62-2.66,5.27-5.29,7.91-7.93a6.45,6.45,0,0,1,1.4-1.21c.14-.08.3-.12.45-.19H64.43a.29.29,0,0,1,.12.15c0,.33-.22.5-.41.69q-4.39,4.43-8.83,8.84A1.56,1.56,0,0,1,54.32,30.8Z"/><path class="cls-9" d="M77.4,10.11,65.91,1.46a9.1,9.1,0,0,1,2.24-.41C70.52.69,72.9.39,75.28,0c.6-.09.78.08.86.68.36,2.82.78,5.62,1.17,8.43C77.35,9.4,77.36,9.66,77.4,10.11Z"/><path class="cls-10" d="M74.88,30.94h-7.8c0-.27.14-.38.39-.4,2.09-.15,4.18,0,6.28-.07.6,0,1.2,0,1.79,0,1.25,0,1.47-.22,1.48-1.44,0-.95,0-1.89,0-2.84,0-1.75-.08-3.5.08-5.25a.48.48,0,0,1,.07-.24c.11-.08.22-.12.32,0,0,3.14,0,6.28,0,9.43,0,.64-.19.86-.82.81S75.48,30.94,74.88,30.94Z"/><path class="cls-11" d="M24.26,55.48l-8.73,0c-2.36,0-4.72,0-7.07,0-.54,0-.72-.15-.72-.71,0-1.9,0-1.9,1.92-1.9,3.83,0,7.67,0,11.5,0,.6,0,.8-.15.79-.77Q21.91,47,22,42c0-.64-.21-.77-.8-.77-4.18,0-8.36,0-12.55,0-.64,0-.88-.15-.86-.84,0-1.74,0-1.73,1.76-1.73l59.39,0c.28,0,.56,0,.83,0,0,.6,0,1.21,0,1.8s-.16.71-.7.7c-3.4,0-6.79,0-10.19,0-.92,0-1.85,0-2.77,0-.41,0-.58.12-.58.55,0,3.51,0,7,0,10.53,0,.57.3.55.7.55,4.23,0,8.45,0,12.68,0,.73,0,.88.21.86.89,0,1.72,0,1.72-1.75,1.72H25.23C24.9,55.45,24.58,55.47,24.26,55.48Z"/><path class="cls-12" d="M69.72,67c-.27,0-.55,0-.83,0H13.38c-1.66,0-3.33,0-5,0-.47,0-.68-.13-.64-.63a8.19,8.19,0,0,0,0-1.31c0-.49.16-.63.63-.63,1.92,0,3.84,0,5.76,0H68.61c.37,0,.74,0,1.11,0Z"/><path class="cls-13" d="M64.46,20.68H77.27l0,.14a1.8,1.8,0,0,1-.6,1l-8.28,8.28a1.84,1.84,0,0,1-1,.6l-.31.25H54.36l0-.13Z"/><path class="cls-13" d="M41.2,20.69H53.14a1.32,1.32,0,0,1,.8.14l-9.32,9.36c-.19.19-.37.41-.55.61a1.4,1.4,0,0,1-.67.12H31.67c-.21,0-.42,0-.6-.11Z"/><path class="cls-13" d="M15.4,20.69H27.26a1.57,1.57,0,0,1,.88.14q-4.65,4.65-9.28,9.31c-.21.22-.41.44-.61.67a11.42,11.42,0,0,1-3.55,0,1.29,1.29,0,0,0,.47-2.08q-1.44-2.07-2.94-4.11c-.27-.35-.23-.56.08-.85C13.35,22.75,14.37,21.72,15.4,20.69Z"/><path class="cls-14" d="M67.39,30.68l9.85-9.85a1.44,1.44,0,0,1,.11.74c0,2.79,0,5.58,0,8.37,0,.66-.21.88-.87.87-2.79,0-5.58,0-8.36,0A1.34,1.34,0,0,1,67.39,30.68Z"/><path class="cls-15" d="M52.81,52.82l-11.91,0L27,52.83c-.21-.39.1-.61.31-.83.7-.74,1.43-1.44,2.15-2.16,2.54-2.55,5.1-5.09,7.63-7.65a2.89,2.89,0,0,1,2.22-.94c4.27,0,8.54,0,12.82,0,.55,0,.74.12.73.71,0,3.42,0,6.83,0,10.25C52.89,52.42,53,52.64,52.81,52.82Z"/><path class="cls-16" d="M52.81,52.82c0-3.51,0-7,0-10.53,0-.91,0-.94-.93-.94H39.21a1.41,1.41,0,0,0-1.13.39L27.26,52.56a2.88,2.88,0,0,0-.22.27c-.67,0-1.34,0-2,0-.4,0-.5-.16-.5-.53q0-5.26,0-10.53c0-.47.18-.57.61-.57l27.22,0c.37,0,.6.07.6.53q0,5.35,0,10.73C53,52.59,53,52.74,52.81,52.82Z"/></g></g></svg>