<svg xmlns="http://www.w3.org/2000/svg" xmlns:xlink="http://www.w3.org/1999/xlink" viewBox="0 0 90.1 76.91"><defs><style>.cls-1{fill:url(#Bílá_černá);}</style><linearGradient id="Bílá_černá" x1="35.62" y1="-51.53" x2="51.84" y2="104.07" gradientUnits="userSpaceOnUse"><stop offset="0" stop-color="#fff"/><stop offset="1"/></linearGradient></defs><title>AF_What We Do_FR-SFX Creation V2</title><g id="Vrstva_2" data-name="Vrstva 2"><g id="Vrstva_1-2" data-name="Vrstva 1"><path class="cls-1" d="M21.94,34.85l.37.06a12.64,12.64,0,0,1,.54,1.45c.39,1.74.71,3.5,1.09,5.23.49,2.19,1,4.36,1.51,6.55s.89,4.55,1.33,6.83c0,.15.09.31.12.47C27.44,58,28,60.61,28.51,63.2c.12.62,0,1.43.92,1.43s.73-.84.84-1.41c.45-2.33.86-4.67,1.35-7,.45-2.17,1-4.31,1.48-6.47S34,45.27,34.5,43c.41-1.84.92-3.65,1.31-5.49.44-2.06.78-4.14,1.21-6.2,0-.28.31-.69.51-.72a1.26,1.26,0,0,1,.88.42,1.57,1.57,0,0,1,.27.82c.37,2.57.73,5.13,1.07,7.7.23,1.68.36,3.39.61,5.07.46,3,1,6,1.46,9,.48,3.28.83,6.59,1.28,9.87.23,1.66.55,3.31.8,5s.45,3.38.73,5.05a4.71,4.71,0,0,0,.56,1.21l.29-.06a6.65,6.65,0,0,0,.34-1.13c.24-1.68.47-3.36.66-5,.4-3.35.77-6.71,1.15-10.06.07-.64.08-1.3.17-1.94.5-3.66,1-7.32,1.52-11,.35-2.6.69-5.19,1-7.79.42-3.64.78-7.3,1.19-11a9.2,9.2,0,0,1,.44-1.53,2.22,2.22,0,0,1,1.29,1.86c.41,3.19.84,6.37,1.23,9.56.16,1.29.19,2.59.36,3.88.56,4.33,1.17,8.67,1.76,13,.08.62.13,1.24.22,1.85.49,3.26,1,6.5,1.46,9.77.45,3.45.79,6.92,1.18,10.39.05.37.17.74.31,1.34.34-.4.57-.57.64-.8a16,16,0,0,0,.72-2.63c.48-3.17.88-6.35,1.31-9.53,0-.19.08-.37.11-.56.48-2.85,1-5.69,1.43-8.55.5-3.28.94-6.57,1.42-9.86.27-1.92.55-3.85.86-5.76a17.94,17.94,0,0,1,.53-2.44c.09-.33.45-.57.68-.85.22.25.53.47.63.76a25.84,25.84,0,0,1,.84,2.85c.16.66.48,1,1.16,1H88.91c.91-.09,1.17-.37,1.19-1.29,0-1.31-.18-1.67-1.14-1.75-.62-.05-1.25,0-1.87,0-4.57,0-9.14,0-13.72,0-1.65,0-2.15-.46-2.47-2.11s-.83-3.28-1.27-4.92c-.58-2.16-1.15-4.33-1.75-6.48-.27-.95-.59-1.89-.89-2.83a4.54,4.54,0,0,0-.26-.54c-1,.67-.77,1.52-.89,2.22-.58,3.49-1.12,7-1.67,10.48-.11.72-.17,1.45-.29,2.17-.5,3-1.06,5.9-1.5,8.86s-.75,5.78-1.12,8.67c-.06.46-.19.88-.77.86s-1-.21-1.06-.88q-.48-4.29-1-8.6c-.45-3.75-.86-7.51-1.36-11.26-.43-3.24-1-6.46-1.45-9.69-.22-1.63-.3-3.29-.52-4.92-.49-3.56-1-7.1-1.54-10.66-.34-2.4-.63-4.82-1-7.22,0-.25-.34-.47-.52-.7-.14.21-.37.4-.4.63q-.41,2.88-.74,5.79c-.19,1.77-.29,3.56-.52,5.32C50,15.17,49.41,18.58,49,22c-.52,4.15-.92,8.32-1.43,12.48-.47,3.8-1,7.6-1.53,11.4-.15,1.18-.11,2.38-.25,3.56,0,.32-.4.61-.62.92a13.11,13.11,0,0,1-1.09-.84c-.11-.1-.08-.36-.1-.55-.31-2.33-.6-4.65-.91-7-.37-2.76-.74-5.52-1.13-8.27-.23-1.63-.51-3.25-.76-4.88-.32-2.13-.66-4.26-.95-6.4-.4-3-.74-5.95-1.15-8.92a4.21,4.21,0,0,0-.48-1.12c-.25.34-.63.65-.73,1-.38,1.57-.68,3.16-1,4.74-.27,1.3-.53,2.59-.8,3.89,0,.21-.07.42-.12.63-.54,2.31-1.11,4.6-1.62,6.92-.47,2.1-.83,4.23-1.3,6.34-.44,1.94-1,3.85-1.44,5.8-.46,2.22-.8,4.46-1.2,6.68a1.26,1.26,0,0,1-.19.61,1.51,1.51,0,0,1-.82.49,1,1,0,0,1-.72-.48,3.83,3.83,0,0,1-.26-1.18c-.08-.58-.09-1.18-.21-1.76-.55-2.53-1.15-5.05-1.69-7.58-.45-2.08-.84-4.18-1.26-6.26,0-.11-.06-.21-.08-.32-.55-2.63-1.07-5.27-1.64-7.9-.07-.34-.31-.86-.54-.9a.87.87,0,0,0-1.06.84,12.78,12.78,0,0,1-.5,2c-1.1,3.15-2.25,6.29-3.34,9.44-.63,1.81-.6,1.83-2.5,1.88h-.49l-13.8-.06C.29,37.31,0,37.74,0,39s.31,1.42,1.29,1.42l2.85,0q7.14,0,14.28,0c.88,0,1.44-.25,1.65-1.17a15.68,15.68,0,0,1,.78-2.55A13.16,13.16,0,0,1,21.94,34.85Z"/><path class="cls-1" d="M21.94,34.85a13.16,13.16,0,0,0-1.09,1.79,15.68,15.68,0,0,0-.78,2.55c-.21.92-.77,1.18-1.65,1.17q-7.14,0-14.28,0l-2.85,0C.31,40.37,0,40,0,39s.29-1.64,1.26-1.64l13.8.06h.49c1.9-.05,1.87-.07,2.5-1.88,1.09-3.15,2.24-6.29,3.34-9.44a12.78,12.78,0,0,0,.5-2A.87.87,0,0,1,23,23.17c.23,0,.47.56.54.9.57,2.63,1.09,5.27,1.64,7.9,0,.11.06.21.08.32.42,2.08.81,4.18,1.26,6.26.54,2.53,1.14,5.05,1.69,7.58.12.58.13,1.18.21,1.76a3.83,3.83,0,0,0,.26,1.18,1,1,0,0,0,.72.48,1.51,1.51,0,0,0,.82-.49,1.26,1.26,0,0,0,.19-.61c.4-2.22.74-4.46,1.2-6.68.41-2,1-3.86,1.44-5.8.47-2.11.83-4.24,1.3-6.34.51-2.32,1.08-4.61,1.62-6.92,0-.21.08-.42.12-.63.27-1.3.53-2.59.8-3.89.33-1.58.63-3.17,1-4.74.1-.39.48-.7.73-1a4.21,4.21,0,0,1,.48,1.12c.41,3,.75,6,1.15,8.92.29,2.14.63,4.27.95,6.4.25,1.63.53,3.25.76,4.88.39,2.75.76,5.51,1.13,8.27.31,2.33.6,4.65.91,7,0,.19,0,.45.1.55a13.11,13.11,0,0,0,1.09.84c.22-.31.58-.6.62-.92.14-1.18.1-2.38.25-3.56.48-3.8,1.06-7.6,1.53-11.4.51-4.16.91-8.33,1.43-12.48.43-3.43,1-6.84,1.43-10.27.23-1.76.33-3.55.52-5.32q.33-2.91.74-5.79c0-.23.26-.42.4-.63.18.23.48.45.52.7.35,2.4.64,4.82,1,7.22.51,3.56,1,7.1,1.54,10.66.22,1.63.3,3.29.52,4.92.46,3.23,1,6.45,1.45,9.69.5,3.75.91,7.51,1.36,11.26q.51,4.3,1,8.6c.07.67.5.85,1.06.88s.71-.4.77-.86c.37-2.89.69-5.79,1.12-8.67s1-5.9,1.5-8.86c.12-.72.18-1.45.29-2.17.55-3.49,1.09-7,1.67-10.48.12-.7-.12-1.55.89-2.22a4.54,4.54,0,0,1,.26.54c.3.94.62,1.88.89,2.83.6,2.15,1.17,4.32,1.75,6.48.44,1.64.94,3.26,1.27,4.92s.82,2.12,2.47,2.11c4.58,0,9.15,0,13.72,0,.62,0,1.25-.07,1.87,0,1,.08,1.17.44,1.14,1.75,0,.92-.28,1.2-1.19,1.29H70.08c-.68,0-1-.34-1.16-1a25.84,25.84,0,0,0-.84-2.85c-.1-.29-.41-.51-.63-.76-.23.28-.59.52-.68.85a17.94,17.94,0,0,0-.53,2.44c-.31,1.91-.59,3.84-.86,5.76-.48,3.29-.92,6.58-1.42,9.86-.44,2.86-1,5.7-1.43,8.55,0,.19-.08.37-.11.56-.43,3.18-.83,6.36-1.31,9.53a16,16,0,0,1-.72,2.63c-.07.23-.3.4-.64.8-.14-.6-.26-1-.31-1.34-.39-3.47-.73-6.94-1.18-10.39-.42-3.27-1-6.51-1.46-9.77-.09-.61-.14-1.23-.22-1.85-.59-4.33-1.2-8.67-1.76-13-.17-1.29-.2-2.59-.36-3.88-.39-3.19-.82-6.37-1.23-9.56a2.22,2.22,0,0,0-1.29-1.86,9.2,9.2,0,0,0-.44,1.53c-.41,3.65-.77,7.31-1.19,11-.3,2.6-.64,5.19-1,7.79-.5,3.66-1,7.32-1.52,11-.09.64-.1,1.3-.17,1.94-.38,3.35-.75,6.71-1.15,10.06-.19,1.69-.42,3.37-.66,5a6.65,6.65,0,0,1-.34,1.13l-.29.06a4.71,4.71,0,0,1-.56-1.21c-.28-1.67-.47-3.37-.73-5.05s-.57-3.3-.8-5c-.45-3.28-.8-6.59-1.28-9.87-.43-3-1-6-1.46-9-.25-1.68-.38-3.39-.61-5.07-.34-2.57-.7-5.13-1.07-7.7a1.57,1.57,0,0,0-.27-.82,1.26,1.26,0,0,0-.88-.42c-.2,0-.46.44-.51.72-.43,2.06-.77,4.14-1.21,6.2-.39,1.84-.9,3.65-1.31,5.49-.49,2.24-.91,4.49-1.4,6.73s-1,4.3-1.48,6.47c-.49,2.32-.9,4.66-1.35,7-.11.57.09,1.4-.84,1.41s-.8-.81-.92-1.43C28,60.61,27.44,58,26.9,55.44c0-.16-.09-.32-.12-.47-.44-2.28-.84-4.57-1.33-6.83s-1-4.36-1.51-6.55c-.38-1.73-.7-3.49-1.09-5.23a12.64,12.64,0,0,0-.54-1.45Z"/></g></g></svg>