<svg xmlns="http://www.w3.org/2000/svg" xmlns:xlink="http://www.w3.org/1999/xlink" viewBox="0 0 86.91 73.05"><defs><style>.cls-1{fill:url(#Nepojmenovaný_přechod_7);}.cls-2{fill:url(#Nepojmenovaný_přechod_7-2);}.cls-3{fill:url(#Nepojmenovaný_přechod_7-3);}.cls-4{fill:url(#Nepojmenovaný_přechod_7-4);}</style><linearGradient id="Nepojmenovaný_přechod_7" x1="20.36" y1="-102.32" x2="35.36" y2="115.22" gradientUnits="userSpaceOnUse"><stop offset="0" stop-color="#fff"/><stop offset="1" stop-color="#202020"/></linearGradient><linearGradient id="Nepojmenovaný_přechod_7-2" x1="46.89" y1="-104.15" x2="61.89" y2="113.39" xlink:href="#Nepojmenovaný_přechod_7"/><linearGradient id="Nepojmenovaný_přechod_7-3" x1="70.23" y1="-105.76" x2="85.23" y2="111.78" xlink:href="#Nepojmenovaný_přechod_7"/><linearGradient id="Nepojmenovaný_přechod_7-4" x1="-3.47" y1="-100.68" x2="11.53" y2="116.86" xlink:href="#Nepojmenovaný_přechod_7"/></defs><title>AF_What We Do_FnD-Post-Production V2</title><g id="Vrstva_2" data-name="Vrstva 2"><g id="Vrstva_1-2" data-name="Vrstva 1"><path class="cls-1" d="M33,37l3,.47v19l-2.9.79V72.94H28.42V57.33l-3.1-.78V37.64l3-.78V0H33Z"/><path class="cls-2" d="M61.49,39.21l-3,.48V73.05H53.92V39.92l-3.19-.79v-19l3.05-.73V0h4.64V19.4l3.07.73Z"/><path class="cls-3" d="M86.91,69.24l-2.82.42L83.57,73H79.35l-.45-3.25-2.78-.58V50.08l2.93-.54V.05H83.7V49.4l3.21.74Z"/><path class="cls-4" d="M0,17.16l2.92-.51V0H7.58V16.57l3.05.63V36.29l-2.94.59V73H3.1V37L0,36.29Z"/></g></g></svg>