<svg xmlns="http://www.w3.org/2000/svg" xmlns:xlink="http://www.w3.org/1999/xlink" viewBox="0 0 103.4 63.82"><defs><style>.cls-1{fill:url(#Bílá_černá);}.cls-2{fill:url(#Bílá_černá-2);}.cls-3{fill:url(#Bílá_černá-3);}.cls-4{fill:url(#Bílá_černá-4);}.cls-5{fill:url(#Bílá_černá-5);}.cls-6{fill:url(#Bílá_černá-6);}.cls-7{fill:url(#Bílá_černá-7);}.cls-8{fill:url(#Bílá_černá-8);}.cls-9{fill:url(#Bílá_černá-9);}.cls-10{fill:#202020;}</style><linearGradient id="Bílá_černá" x1="80.72" y1="-39.81" x2="74.52" y2="104.58" gradientUnits="userSpaceOnUse"><stop offset="0" stop-color="#fff"/><stop offset="1"/></linearGradient><linearGradient id="Bílá_černá-2" x1="29.03" y1="-42.03" x2="22.83" y2="102.36" xlink:href="#Bílá_černá"/><linearGradient id="Bílá_černá-3" x1="54.09" y1="-40.95" x2="47.9" y2="103.43" xlink:href="#Bílá_černá"/><linearGradient id="Bílá_černá-4" x1="16.53" y1="-42.57" x2="10.34" y2="101.82" xlink:href="#Bílá_černá"/><linearGradient id="Bílá_černá-5" x1="94.77" y1="-39.21" x2="88.57" y2="105.18" xlink:href="#Bílá_černá"/><linearGradient id="Bílá_černá-6" x1="23.44" y1="-42.27" x2="17.24" y2="102.12" xlink:href="#Bílá_černá"/><linearGradient id="Bílá_černá-7" x1="84.16" y1="-39.66" x2="77.96" y2="104.72" xlink:href="#Bílá_černá"/><linearGradient id="Bílá_černá-8" x1="23.06" y1="-42.29" x2="16.87" y2="102.1" xlink:href="#Bílá_černá"/><linearGradient id="Bílá_černá-9" x1="83.94" y1="-39.67" x2="77.74" y2="104.72" xlink:href="#Bílá_černá"/></defs><title>AF_What We Do_VG-Post-Production V2</title><g id="Vrstva_2" data-name="Vrstva 2"><g id="Vrstva_1-2" data-name="Vrstva 1"><g id="Fs4aRz"><path class="cls-1" d="M66.1,28.79a17.75,17.75,0,0,1,.25-7,16.4,16.4,0,1,1,14.2,20.27c-.81-.08-1.16,0-1.39.92A11.44,11.44,0,0,1,67,51.7,11.54,11.54,0,0,1,65.32,29ZM68,34.11a6.1,6.1,0,1,0,6.12,6.13A6.12,6.12,0,0,0,68,34.11ZM82.6,36.92a3.38,3.38,0,0,0,0-6.76,3.38,3.38,0,0,0,0,6.76Zm-4.26-11a3.37,3.37,0,0,0-6.73,0,3.37,3.37,0,1,0,6.73,0Zm11.85,3.41a3.38,3.38,0,1,0-3.38-3.4A3.4,3.4,0,0,0,90.19,29.32ZM82.57,15A3.37,3.37,0,1,0,86,18.37,3.37,3.37,0,0,0,82.57,15Z"/><path class="cls-2" d="M37.31,28.81a11.62,11.62,0,0,1,8,5.53,11.18,11.18,0,0,1,1.5,7.3A11.56,11.56,0,0,1,36.55,51.7,11.75,11.75,0,0,1,23.91,42c-6,.74-11.14-.93-15.17-5.51a16,16,0,0,1-4-11.94A16.43,16.43,0,0,1,21.6,9.35a16,16,0,0,1,12.32,6.14A16.29,16.29,0,0,1,37.31,28.81Zm-20-6.29h-1c-1.69,0-3.39,0-5.09,0A1.47,1.47,0,0,0,9.6,24.19c0,1.2,0,2.41,0,3.62a1.46,1.46,0,0,0,1.6,1.62c1,0,2,0,2.93,0h3.23c0,2.09,0,4.07,0,6.05a1.53,1.53,0,0,0,1.7,1.71c1,0,2.07,0,3.11,0,1.66,0,2.1-.44,2.1-2.08V29.44h6.1A1.46,1.46,0,0,0,32,28c0-1.32,0-2.65,0-4a1.4,1.4,0,0,0-1.48-1.46c-1,0-2.07,0-3.11,0H24.28v-6c0-1.22-.51-1.71-1.74-1.73H19.18c-1.31,0-1.81.52-1.82,1.84Zm18,23.78a6.1,6.1,0,1,0-6.12-6.06A6.12,6.12,0,0,0,35.41,46.3Z"/><path class="cls-3" d="M58.15,48H45.35a12.77,12.77,0,0,0-6.91-20,17,17,0,0,0-.5-6.88,18.14,18.14,0,0,0-3.21-6.25H68.67A18.52,18.52,0,0,0,65.5,21,17.81,17.81,0,0,0,65,28a12.44,12.44,0,0,0-8.8,8.18C54.72,40.37,55.5,44.3,58.15,48ZM45.5,27.81h0c.81,0,1.61,0,2.41,0a1.36,1.36,0,0,0,1.35-1.38,1.32,1.32,0,0,0-1.36-1.28c-1.52,0-3,0-4.56,0A1.32,1.32,0,0,0,42,26.46a1.37,1.37,0,0,0,1.4,1.34C44.07,27.83,44.78,27.81,45.5,27.81Zm12.32-2.7H56.71c-.38,0-.75,0-1.12,0a1.34,1.34,0,1,0,0,2.68q2.24,0,4.47,0a1.34,1.34,0,0,0,1.37-1.35,1.32,1.32,0,0,0-1.38-1.33C59.31,25.09,58.57,25.11,57.82,25.11Z"/><path class="cls-4" d="M23,43.24c.67,1.35,1.35,2.67,2,4a1,1,0,0,1-.06.77q-3.54,6.56-7.13,13.1a2.43,2.43,0,0,1-.68.75C12,65.66,3.65,63.67.81,58A7.21,7.21,0,0,1,.1,53.47C1.37,45.7,2.58,37.93,3.81,30.15c0-.22.09-.45.14-.69C6.86,38.89,13.21,43.46,23,43.24Z"/><path class="cls-5" d="M80.38,43.24c9.82.22,16.16-4.36,19.09-13.84.5,3.17,1,6.28,1.5,9.4.77,4.91,1.51,9.83,2.33,14.73a7.09,7.09,0,0,1-.77,4.58c-2.88,5.54-11,7.48-16.07,3.85a3,3,0,0,1-.9-1c-2.35-4.25-4.66-8.52-7-12.77a1.1,1.1,0,0,1,0-1.24C79.23,45.76,79.78,44.5,80.38,43.24Z"/><path class="cls-6" d="M29.21,10.46a17,17,0,0,0-7.93-2.14,17.14,17.14,0,0,0-7.93,1.94c0-1.86-.09-3.6,0-5.33a2.28,2.28,0,0,1,2.31-2q5.57,0,11.11,0a2.43,2.43,0,0,1,2.4,2.54C29.25,7,29.21,8.65,29.21,10.46Z"/><path class="cls-7" d="M74.19,10.47c0-1.84,0-3.48,0-5.11a2.47,2.47,0,0,1,2.64-2.48c3.56,0,7.12,0,10.68,0a2.34,2.34,0,0,1,2.49,2c.13,1.73,0,3.48,0,5.34a17,17,0,0,0-7.91-1.94A16.78,16.78,0,0,0,74.19,10.47Z"/><path class="cls-8" d="M26.14,1.84H16.28V0h9.86Z"/><path class="cls-9" d="M87.14,0V1.81H77.26V0Z"/><path class="cls-10" d="M68,34.11a6.1,6.1,0,1,1-6.12,6.06A6.1,6.1,0,0,1,68,34.11Z"/><path class="cls-10" d="M82.6,36.92A3.38,3.38,0,1,1,86,33.55,3.38,3.38,0,0,1,82.6,36.92Z"/><path class="cls-10" d="M78.34,25.91a3.37,3.37,0,1,1-3.41-3.35A3.37,3.37,0,0,1,78.34,25.91Z"/><path class="cls-10" d="M90.19,29.32a3.38,3.38,0,1,1,3.36-3.41A3.39,3.39,0,0,1,90.19,29.32Z"/><path class="cls-10" d="M82.57,15a3.37,3.37,0,1,1-3.36,3.42A3.38,3.38,0,0,1,82.57,15Z"/><path class="cls-10" d="M17.36,22.52V16.6c0-1.32.51-1.83,1.82-1.84h3.36c1.23,0,1.73.51,1.74,1.73v6h3.16c1,0,2.07,0,3.11,0A1.4,1.4,0,0,1,32,24c0,1.32,0,2.65,0,4a1.46,1.46,0,0,1-1.65,1.48h-6.1v5.68c0,1.64-.44,2.08-2.1,2.08-1,0-2.07,0-3.11,0a1.53,1.53,0,0,1-1.7-1.71c0-2,0-4,0-6.05H14.13c-1,0-2,0-2.93,0a1.46,1.46,0,0,1-1.6-1.62c0-1.21,0-2.42,0-3.62a1.47,1.47,0,0,1,1.64-1.66c1.7,0,3.4,0,5.09,0Z"/><path class="cls-10" d="M35.41,46.3a6.1,6.1,0,1,1,6.09-6.1A6.1,6.1,0,0,1,35.41,46.3Z"/><path class="cls-10" d="M45.5,27.81c-.72,0-1.43,0-2.15,0A1.37,1.37,0,0,1,42,26.46a1.32,1.32,0,0,1,1.39-1.34c1.52,0,3,0,4.56,0a1.32,1.32,0,0,1,1.36,1.28,1.36,1.36,0,0,1-1.35,1.38c-.8,0-1.6,0-2.41,0Z"/><path class="cls-10" d="M57.82,25.11c.75,0,1.49,0,2.24,0a1.32,1.32,0,0,1,1.38,1.33,1.34,1.34,0,0,1-1.37,1.35q-2.24,0-4.47,0a1.34,1.34,0,1,1,0-2.68c.37,0,.74,0,1.12,0Z"/></g></g></g></svg>