<?xml version="1.0" encoding="utf-8"?>
<!-- Generator: Adobe Illustrator 24.0.2, SVG Export Plug-In . SVG Version: 6.00 Build 0)  -->
<svg version="1.1" id="Vrstva_1" xmlns="http://www.w3.org/2000/svg" xmlns:xlink="http://www.w3.org/1999/xlink" x="0px" y="0px"
	 viewBox="0 0 80 80" style="enable-background:new 0 0 80 80;" xml:space="preserve">
<style type="text/css">
	.st0{fill:#FFFFFF;}
</style>
<g>
	<g>
		<g>
			<path class="st0" d="M16.8,54.2c-0.5-1.2-0.9-2.5-1.1-3.8c-0.2-1.3-0.3-2.6-0.2-3.9c0.1-1.3,0.3-2.6,0.7-3.9
				c0.4-1.3,0.9-2.5,1.6-3.6l0,0C15.2,43.6,14.9,49.3,16.8,54.2L16.8,54.2z"/>
		</g>
		<g>
			<path class="st0" d="M50.2,40.9c0.8,1.9,1.2,3.9,1.3,6c0,2.1-0.2,4.1-0.8,6.1c-1.2,3.9-3.8,7.4-7.3,9.7
				c-3.5,2.3-7.7,3.2-11.8,2.8c-2-0.2-4.1-0.8-5.9-1.7c-1.8-0.9-3.5-2.1-5-3.6l0,0c2.9,2.9,6.8,4.7,10.9,5.1
				c4.1,0.4,8.3-0.6,11.7-2.9c3.4-2.3,6-5.7,7.2-9.6c0.6-2,0.8-4,0.8-6C51.3,44.9,50.9,42.8,50.2,40.9L50.2,40.9z"/>
		</g>
		<g>
			<path class="st0" d="M29.7,30c1.5-0.4,3.1-0.6,4.6-0.5c1.6,0,3.1,0.3,4.6,0.7c1.5,0.5,2.9,1.2,4.2,2c1.3,0.8,2.5,1.9,3.5,3l0,0
				c-2.1-2.2-4.8-3.9-7.8-4.8C35.9,29.5,32.7,29.4,29.7,30L29.7,30z"/>
		</g>
	</g>
	<g>
		<path class="st0" d="M4.4,24.3c0.1,0.1,0.6,0.6,0.8,0.9c1,1.2,2,1.6,6.2,3c0.8,0.3,1.5,0.5,2.3,0.7c0.2,0,0.3,0.1,0.6,0.1
			c-0.1-0.1-0.1-0.2-0.2-0.2c-1.9-0.9-3.7-2.1-5.5-3.2c-1.6-1-3.3-2-4.8-3.3c-0.3-0.3-0.7-0.6-0.9-1c1.1,0.7,2.1,1.5,3.3,2
			c-0.2-0.2-0.4-0.5-0.6-0.7c0,0,0-0.1,0.1-0.1c0.1,0,0.2,0,0.3,0.1c1.7,0.5,2.5,1.3,3.9,2.1c0.4,0.2,1.1,0.6,2,0.9
			c1.7,1,3.5,1.9,5.5,2.7c0.3,0.1,0.5,0.2,0.8,0.3c-0.1-0.2-0.1-0.3-0.2-0.3c-1.1-0.9-2.3-1.9-3.4-2.8c-0.9-0.8-1.9-1.5-2.8-2.4
			c-0.7-0.7-1.3-1.4-1.9-2.1c-0.9-1.2-1.9-2.4-3.1-3.5c-0.1-0.1-0.1-0.2-0.2-0.3c0.1,0.1,0.2,0.1,0.3,0.2c0.8,0.7,1.5,1.3,2.3,2
			c0.8,0.7,1.6,1.5,2.5,2.2c1.2,1,2.4,2,3.7,2.9c1.3,0.9,2.6,1.8,3.9,2.7c0.2,0.1,0.4,0.2,0.6,0.3c-1.8-1.6-3.5-3.2-5.2-4.8
			c0,0,0.1-0.1,0.1-0.1c0.4,0.3,0.9,0.5,1.3,0.8c0.7,0.4,1.4,0.8,2.1,1.2c0.6,0.4,1.2,0.8,1.9,1.2c0.7,0.5,1.4,1,2.2,1.4
			c0.2,0.1,0.5,0.2,0.8,0.3c1.1,0.7,2.2,1.5,3.3,2.2c0.6,0.4,1.2,0.9,1.9,1.3c0.1,0,0.1,0.1,0.2,0c-0.7-1-1.5-2-2.3-3
			c0.2,0.1,0.3,0.1,0.4,0.2c0.8,0.7,1.6,1.3,2.3,2c0.6,0.5,1.1,1.1,1.6,1.7c0.2,0.2,0.3,0.5,0.5,0.9c0-0.2,0.1-0.3,0.1-0.5
			c0-0.1,0-0.2,0-0.2s0.1,0.1,0.1,0.2c0.1,0.8,0.4,1.7,0.6,2.5c0,0.1,0.1,0.2,0.2,0.2c0,0,0,0,0,0s0,0,0,0c0.1-0.4,0.1-0.9,0-1.4
			c0.1,0.1,0.2,0.3,0.2,0.3c0.1,0.7,0.4,1.4-0.1,2.1c-0.1,0.1-0.1,0.2-0.1,0.3c0.2,0.6,0.4,1.3,0.7,1.9c0.6,1.2,1.2,2.4,1.9,3.6
			c0.3,0.6,0.8,1.1,1.1,1.6c0.3,0.5,0.9,0.8,1.3,1.2c0.4,0.3,0.8,0.3,1.3,0.5c0.5,0.1,0.5,0.2,0.3,0.7c0.8,0.1,1.7,0.3,2.5,0.4
			c0.9,0.1,1.8,0.1,2.7,0.1c0.6,0,1.5-0.1,2,0.2c0.3,0.2,1.1,0.8,1.2,1.2c0,0-0.3-0.1-0.7,0.2c-0.2,0.1-0.4,0.3-0.6,0.4
			c0,0.1,0,0.1,0.1,0.2c0.2-0.1,0.5-0.2,0.7-0.3c0.6-0.3,0.9,0,1.1,0.4c0.3,0.7-0.2,2-0.4,1.8c0,0,0-0.7-0.2-0.8
			c-0.1-0.1-0.3-0.1-0.6-0.1c-0.4,0-0.8,0-1.2,0.2c-0.6,0.3-1.3,0.4-1.9,0.7c-0.4,0.2-0.8,0.4-1.2,0.7c-0.7,0.4-1.2,1-2,1.3
			c-0.4,0.1-0.7,0.4-1,0.6c-1,0.6-2.1,0.9-3.2,1.2c-0.8,0.2-1.6,0.6-2.3,0.8c-1,0.3-2,0.7-3,0.9c-0.9,0.2-1.4,0.9-2.1,1.4
			c0,0,0,0.1,0,0.1c0.2,0,0.4,0,0.5-0.1c0.2,0,0.4,0,0.4,0.3c0,0.9-0.1,1.9-0.7,2.6c-0.1,0.1-0.2,0.2-0.3,0.3c0,0-0.1,0-0.1-0.1
			c0-0.1,0.1-0.2,0.1-0.3c0.1-0.3,0.3-0.6,0.4-0.9c0.1-0.4-0.2-0.6-0.5-0.4c-0.5,0.3-1,0.6-1.4,1.1c-0.6,0.7-1.4,1.2-2.2,1.6
			c-0.1,0.1-0.3,0.1-0.4,0.1c0.6-0.7,1.2-1.4,1.8-2.1c0,0-0.1-0.1-0.1-0.1c-0.7,0.3-1.4,0.7-2.1,0.9c-0.7,0.3-1.4,0.7-2.2,0.7
			c0.5-0.4,1-0.8,1.5-1.1c0,0,0-0.1,0-0.1c-0.2,0-0.4,0-0.8,0c0.1-0.2,0.2-0.4,0.3-0.5c0.5-0.3,0.5-0.7,0.5-1.2
			c0-0.3-0.1-0.5-0.1-0.9c-1,0.7-1.9,1.2-2.7,1.9c-0.9,0.7-1.7,1.5-2.5,2.2c-0.9,0.7-1.9,1.3-2.9,2c0,0-0.1,0-0.1-0.1
			c0.1-0.2,0.3-0.4,0.4-0.6c-1.6,1-3.2,1.9-4.7,2.9c0,0,0-0.1-0.1-0.1c0.6-0.4,1.2-0.8,1.8-1.3c0,0,0-0.1-0.1-0.1
			c-0.4,0.2-0.8,0.4-1.2,0.6c-0.4,0.2-0.7,0.5-1.1,0.8c0.1-0.5,0.6-0.5,0.9-0.8c-0.1-0.1-0.1-0.3-0.2-0.5c-0.3-0.3-0.2-0.5,0-0.7
			c0.3-0.3,0.7-0.6,1-1c-0.5,0.3-1,0.6-1.5,0.8c0,0-0.1-0.1-0.1-0.1c1.5-1,2.9-1.9,4.4-2.9c0,0,0,0,0-0.1c-2.8,1.1-5.6,2.2-8.4,3.2
			c0,0,0,0,0-0.1c0.3-0.2,0.5-0.3,0.8-0.5c0,0,0,0,0-0.1c-0.1,0-0.2,0-0.4,0c0,0,0,0,0-0.1C7.1,62.3,7.6,62,8,61.8
			c0.3-0.2,0.6-0.3,0.8-0.6c0.8-0.7,1.8-1.1,2.8-1.5c1.2-0.5,2.3-1,3.4-1.5c0.8-0.4,1.6-0.8,2.4-1.2c0.5-0.2,0.9-0.4,1.4-0.7
			c0.1-0.1,0.2-0.3,0.3-0.4c-0.2,0-0.3,0-0.5,0.1c-2.3,1.1-4.6,2.2-6.9,3.3c-0.1,0-0.2,0.1-0.3,0.1c2.3-1.4,4.8-2.4,7-4
			c-1.6,0.7-3.3,1.3-4.9,2.1c-1.6,0.8-3.1,1.6-4.7,2.4c0,0,0-0.1-0.1-0.1c0.2-0.1,0.3-0.2,0.5-0.4c3.5-2.2,7.1-4.3,10.6-6.6
			c1.6-1,3-2.3,4.4-3.6c0.4-0.4,0.9-0.7,1.3-1.1c0.3-0.3,0.5-0.6,0.7-1c-0.6,0.1-1.1,0-1.4-0.4c-0.2-0.2-0.3-0.4-0.4-0.7
			c-0.1-0.2-0.2-0.4-0.3-0.6c-0.3-0.4-0.5-0.8-0.8-1.3c-0.1-0.2-0.2-0.3-0.4-0.1c-0.2,0.2-0.4,0.1-0.5-0.1c-0.2-0.2-0.4-0.4-0.6-0.6
			c-0.4-0.3-0.5-0.7-0.5-1.3c0-0.2-0.3-0.5-0.5-0.8c-0.4-0.4-0.8-0.8-1.2-1.2c-0.3-0.3-0.1-0.6,0.2-0.7c0.2-0.1,0.5,0,0.8-0.1
			c0.3-0.1,0.5-0.2,0.8-0.2c0-0.1,0-0.1,0-0.2c-0.4,0-0.8-0.2-1.2-0.1c-1,0.3-1.9,0-2.7-0.5c-0.6-0.4-1.2-0.7-1.6-1.3
			c-0.1-0.1-0.1-0.2-0.2-0.4c0.3,0,0.5,0,0.8,0c0,0,0-0.1,0.1-0.1c-0.3-0.3-0.6-0.6-0.8-0.9c0.1,0,0.2,0,0.4,0
			c-0.3-0.4-0.7-0.4-1.1-0.5c-1.4,0-2.6-0.7-3.5-1.7c-0.3-0.3-0.4-0.7-0.7-0.9c-0.2-0.2-0.6-0.4-0.8-0.6c-0.1,0-0.1-0.2-0.1-0.2
			c0.1,0,0.2-0.1,0.3-0.1c0.1,0.1,0.2,0.2,0.2,0.2c0.4,0.2,0.7,0.3,1.1,0.5c1.7,0.8,3.5,1.1,5.4,1.1c0.1,0,0.1,0,0.2,0
			c-0.2-0.1-0.4-0.1-0.6-0.2c-2-0.4-4-0.7-6-1.5c-0.1,0-0.3,0-0.4-0.1c-0.2-0.2-0.5-0.3-0.7-0.5c-0.3-0.2-0.9-0.5-0.9-0.6
			s-0.3-0.4-0.3-0.4s0.7,0,0.7,0c1.9,0.3,3.9,0.7,5.8,1c0-0.1,0-0.1,0-0.2c-0.2-0.1-0.5-0.2-0.7-0.3c-0.9-0.4-1.3-0.6-1.6-0.7
			c-1.9-0.8-2-0.8-2.7-1.1c0,0-0.5-0.3-1.5-0.9c-1-0.6-1.8-1.6-3-1.9c-0.1,0-0.3-0.2-0.4-0.5c0-0.1-0.2-0.2-0.3-0.4
			c0-0.1,0-0.2-0.1-0.3C4.4,24.6,4.4,24.2,4.4,24.3z M31,55.1C30.9,55,30.9,55,30.8,55c-0.2,0.1-0.3,0.1-0.5,0.2
			c-1.1,0.5-2.2,0.8-3.1,1.7c-0.1,0.1-0.4,0.2-0.6,0.3c0-0.1-0.1-0.1-0.1-0.2c0.3-0.2,0.6-0.5,0.9-0.8C26,56.5,25.7,57,26,58.1
			C27.6,57.1,29.3,56.1,31,55.1z"/>
		<path class="st0" d="M38.2,40.9C38.2,40.9,38.1,40.9,38.2,40.9c0.1,0,0.2,0,0.3,0c0.7-0.3,1.4-0.6,2-1.1c2-1.4,4-2.6,6.4-3.3
			c0.7-0.2,1.4-0.7,2.1-0.9c0.9-0.3,1.6-0.7,2.3-1.3c0.9-0.8,1.7-1.6,2.5-2.5c0.5-0.6,0.9-1.2,1.5-1.8c-0.5,1.7-1.3,3.2-2.2,4.7
			c0.2-0.1,0.3-0.2,0.5-0.4c1-0.9,1.8-1.9,2.4-3.1c0.6-1.5,1-3,1.4-4.6c0-0.1,0-0.2,0.1-0.3c0,0,0,0,0.1-0.1c0,0.7,0.1,1.4,0.1,2.1
			c0,0,0,0,0.1,0c0.2-0.4,0.4-0.9,0.6-1.3c0,0,0.1,0,0.1,0c-0.2,0.8-0.5,1.6-0.7,2.5c0.1,0,0.1,0.1,0.2,0.1c0.6-1.1,1.1-2.2,1.7-3.3
			c0,0.3-0.1,0.6-0.1,0.9c0,0,0.1,0,0.1,0.1c0.2-0.4,0.5-0.8,0.7-1.2c0.4-0.9,0.5-1.8,0.5-2.8c0.1-0.7,0.1-1.4,0.2-2.1
			c0,0,0.1,0,0.1,0c0,1.1,0,2.2,0,3.3c0,0,0.1,0,0.1,0c0.3-1,0.5-2,0.8-3c0,0,0.1,0,0.1,0c0,0.4-0.1,0.8-0.1,1.1
			c-0.3,1.6-0.7,3.1-1.1,4.7c-0.4,1.5-1.2,2.7-2.3,3.8c-0.5,0.6-1,1.2-1.5,1.7c-0.1,0.1-0.1,0.3-0.2,0.4c0.4-0.3,0.7-0.5,1-0.7
			c0,0,0.1,0.1,0.1,0.1c-0.1,0.1-0.2,0.3-0.3,0.4c-0.4,0.5-0.9,1-1.3,1.4c-1.1,1-2.2,1.9-3.3,2.9c-0.5,0.5-1.1,0.9-1.6,1.4
			c-0.9,0.8-1.9,1.3-3,1.8c-1.3,0.5-2.3,1.4-3,2.6c-0.2,0.4-0.5,0.7-0.7,1.1c-0.1,0.1-0.9,1.4-1,1.3c-1,0.3-4.1-0.3-4.1-0.3
			s0.1-0.4-0.1-0.7c-0.2-0.3-0.8,0.1-1.9-0.8c0,0-0.8-0.7-0.9-0.8c-0.3-0.4-0.5-0.7-0.9-1.1"/>
	</g>
	<g>
		<path class="st0" d="M57.6,46.3c-0.1,0.3-0.1,0.7-0.2,1h-1.1l1.2-6.8h1.5l1.2,6.8h-1.1c-0.1-0.4-0.1-0.7-0.2-1.1H57.6z M58.1,42
			l-0.4,3.2h0.8L58.1,42z"/>
		<path class="st0" d="M63.4,45.9c0,0.4-0.1,0.8-0.4,1.1c-0.3,0.3-0.6,0.4-1.1,0.4c-0.4,0-0.8-0.1-1.1-0.4c-0.3-0.3-0.4-0.6-0.4-1.1
			v-5v-0.2h0.2h0.6h0.2v0.2v5c0,0.1,0,0.2,0.1,0.3c0.1,0.1,0.2,0.1,0.3,0.1c0.1,0,0.2,0,0.3-0.1s0.1-0.2,0.1-0.3v-5v-0.2h0.2h0.6
			h0.2v0.2V45.9z"/>
		<path class="st0" d="M66.6,41c0.3,0.3,0.4,0.6,0.4,1.1v3.8c0,0.4-0.1,0.8-0.4,1.1s-0.6,0.4-1.1,0.4h-1.3H64v-0.2v-1.3v-3.8v-1.3
			v-0.2h0.2h1.3C66,40.6,66.3,40.7,66.6,41z M65.1,41.7v0.4v3.8v0.4h0.5c0.1,0,0.2,0,0.3-0.1S66,46,66,45.9v-3.8
			c0-0.1,0-0.2-0.1-0.3c-0.1-0.1-0.2-0.1-0.3-0.1H65.1z"/>
		<path class="st0" d="M68.5,40.6h0.2v0.2v6.3v0.2h-0.2h-0.6h-0.2v-0.2v-6.3v-0.2h0.2H68.5z"/>
		<path class="st0" d="M71.9,41c0.3,0.3,0.4,0.6,0.4,1.1v3.8c0,0.4-0.1,0.8-0.4,1.1c-0.3,0.3-0.6,0.4-1.1,0.4
			c-0.4,0-0.8-0.1-1.1-0.4c-0.3-0.3-0.4-0.6-0.4-1.1v-3.8c0-0.4,0.1-0.8,0.4-1.1c0.3-0.3,0.6-0.4,1.1-0.4
			C71.2,40.6,71.6,40.7,71.9,41z M70.5,41.8c-0.1,0.1-0.1,0.2-0.1,0.3v3.8c0,0.1,0,0.2,0.1,0.3c0.1,0.1,0.2,0.1,0.3,0.1
			c0.1,0,0.2,0,0.3-0.1c0.1-0.1,0.1-0.2,0.1-0.3v-3.8c0-0.1,0-0.2-0.1-0.3s-0.2-0.1-0.3-0.1C70.7,41.7,70.6,41.7,70.5,41.8z"/>
		<path class="st0" d="M59,48.7h0.2V49v0.6v0.2H59h-1.4v1.7h0.8h0.2v0.2v0.6v0.2h-0.2h-0.8v2.6v0.2h-0.2h-0.6h-0.2v-0.2V49v-0.2h0.2
			H59z"/>
		<path class="st0" d="M60.3,54.4c-0.1,0.3-0.1,0.7-0.2,1h-1.1l1.2-6.8h1.5l1.2,6.8h-1.1c-0.1-0.4-0.1-0.7-0.2-1.1H60.3z M60.8,50.1
			l-0.4,3.2h0.8L60.8,50.1z"/>
		<path class="st0" d="M64,48.7h0.2V49v5.4h1.3h0.2v0.2v0.6v0.2h-0.2h-2.1h-0.2v-0.2V49v-0.2h0.2H64z"/>
		<path class="st0" d="M68.6,49.2c0.3,0.3,0.4,0.6,0.4,1.1v0.2v0.2h-0.2h-0.6h-0.2v-0.2v-0.2c0-0.1,0-0.2-0.1-0.3
			c-0.1-0.1-0.2-0.1-0.3-0.1s-0.2,0-0.3,0.1s-0.1,0.2-0.1,0.3V54c0,0.1,0,0.2,0.1,0.3c0.1,0.1,0.2,0.1,0.3,0.1s0.2,0,0.3-0.1
			s0.1-0.2,0.1-0.3v-0.2v-0.2h0.2h0.6h0.2v0.2V54c0,0.4-0.1,0.8-0.4,1.1s-0.6,0.4-1.1,0.4c-0.4,0-0.8-0.1-1.1-0.4
			c-0.3-0.3-0.4-0.6-0.4-1.1v-3.8c0-0.4,0.1-0.8,0.4-1.1c0.3-0.3,0.6-0.4,1.1-0.4C68,48.7,68.3,48.9,68.6,49.2z"/>
		<path class="st0" d="M72,49.2c0.3,0.3,0.4,0.6,0.4,1.1V54c0,0.4-0.1,0.8-0.4,1.1c-0.3,0.3-0.6,0.4-1.1,0.4c-0.4,0-0.8-0.1-1.1-0.4
			c-0.3-0.3-0.4-0.6-0.4-1.1v-3.8c0-0.4,0.1-0.8,0.4-1.1c0.3-0.3,0.6-0.4,1.1-0.4C71.4,48.7,71.7,48.9,72,49.2z M70.7,49.9
			c-0.1,0.1-0.1,0.2-0.1,0.3V54c0,0.1,0,0.2,0.1,0.3c0.1,0.1,0.2,0.1,0.3,0.1c0.1,0,0.2,0,0.3-0.1c0.1-0.1,0.1-0.2,0.1-0.3v-3.8
			c0-0.1,0-0.2-0.1-0.3s-0.2-0.1-0.3-0.1C70.9,49.8,70.8,49.9,70.7,49.9z"/>
		<path class="st0" d="M73,48.7h1.5c0.6,2.7,0.6,2.6,1.1,4.6c0-1,0-3.6,0-4.6h1.1v6.8h-1.5c-0.6-2.7-0.7-2.8-1-4.5v4.5H73V48.7z"/>
	</g>
</g>
<g>
</g>
<g>
</g>
<g>
</g>
<g>
</g>
<g>
</g>
<g>
</g>
<g>
</g>
<g>
</g>
<g>
</g>
<g>
</g>
<g>
</g>
<g>
</g>
<g>
</g>
<g>
</g>
<g>
</g>
</svg>
