<svg id="Vrstva_1" data-name="Vrstva 1" xmlns="http://www.w3.org/2000/svg" viewBox="0 0 76.03 62.78"><defs><style>.cls-1{fill:#fff;}</style></defs><title>AF_Logo</title><path class="cls-1" d="M19.78,50.88a21.94,21.94,0,0,1-1-2.34,23.62,23.62,0,0,1-.65-2.47A21.87,21.87,0,0,1,17.79,41a21.51,21.51,0,0,1,1-5,22,22,0,0,1,.94-2.37A25.14,25.14,0,0,1,21,31.36l.05,0a23.38,23.38,0,0,0-1.19,19.48Z" transform="translate(-1.97 -3.04)"/><path class="cls-1" d="M62.81,33.83a23,23,0,0,1,1.83,7.69,25.1,25.1,0,0,1-1,7.89,23.91,23.91,0,0,1-9.38,12.65A23.76,23.76,0,0,1,39,65.69a23.38,23.38,0,0,1-7.64-2.2A23.79,23.79,0,0,1,25,58.78l0,0a23.11,23.11,0,0,0,14,6.61,23.16,23.16,0,0,0,24.34-16,25,25,0,0,0,1-7.78,23,23,0,0,0-1.61-7.68Z" transform="translate(-1.97 -3.04)"/><path class="cls-1" d="M36.36,19.78a22.32,22.32,0,0,1,2.94-.65,21.53,21.53,0,0,1,3-.18A20.73,20.73,0,0,1,53.76,22.5a22.4,22.4,0,0,1,2.38,1.86,25.06,25.06,0,0,1,2,2.2l0,0a23.22,23.22,0,0,0-10-6.23,23.37,23.37,0,0,0-11.78-.53Z" transform="translate(-1.97 -3.04)"/><path class="cls-1" d="M3.86,12.33a11.46,11.46,0,0,1,1.06,1.14c1.24,1.61,2.61,2,8,3.86,1,.34,2,.62,3,.92.19.05.41.07.76.13a2,2,0,0,0-.23-.26,62.31,62.31,0,0,1-7.1-4.18A42.49,42.49,0,0,1,3.16,9.69,7.94,7.94,0,0,1,2,8.37,21.39,21.39,0,0,0,6.28,11L5.5,10l.08-.11L6,10c2.14.64,3.22,1.63,5,2.65a21,21,0,0,0,2.55,1.22,63.48,63.48,0,0,0,7.1,3.54l1,.41c-.09-.19-.11-.33-.2-.4C20,16.21,18.47,15,17,13.8c-1.2-1-2.43-2-3.55-3.06A21.88,21.88,0,0,1,11.05,8a36,36,0,0,0-4-4.51A.59.59,0,0,1,6.91,3a3,3,0,0,1,.44.29c1,.86,2,1.73,2.92,2.61s2.08,1.94,3.18,2.84c1.56,1.29,3.14,2.55,4.78,3.74s3.36,2.31,5.05,3.44a5.73,5.73,0,0,0,.8.35l-6.7-6.2L17.5,10l1.71,1c.9.52,1.8,1,2.69,1.59s1.6,1,2.39,1.57,1.84,1.25,2.78,1.85c.29.18.69.19,1,.38q2.14,1.41,4.26,2.88c.81.56,1.6,1.16,2.4,1.73a.31.31,0,0,0,.31,0c-1-1.27-1.93-2.54-3-3.92a3.67,3.67,0,0,1,.55.3c1,.87,2,1.72,3,2.63a29.47,29.47,0,0,1,2,2.15,6.54,6.54,0,0,1,.61,1.1l.16-.62a.91.91,0,0,0,0-.26.51.51,0,0,1,.13.23c.18,1.09.54,2.13.82,3.2a.41.41,0,0,0,.31.32h.12a6.69,6.69,0,0,0,0-1.79.75.75,0,0,1,.25.43c.08,1,.49,1.76-.18,2.66a.43.43,0,0,0-.09.34,20.22,20.22,0,0,0,.88,2.44c.76,1.55,1.58,3.08,2.44,4.59.43.74,1,1.39,1.47,2.11s1.22,1,1.71,1.51A13.56,13.56,0,0,0,47.9,39c.64.17.71.29.45,1,1.1.16,2.17.37,3.26.46a30,30,0,0,0,3.42.08,5.62,5.62,0,0,1,2.54.26C58,41,59,41.9,59.1,42.34a1.28,1.28,0,0,0-.91.26c-.25.18-.53.34-.8.5l.09.2.94-.41a1,1,0,0,1,1.47.47c.34.9-.26,2.56-.47,2.35,0,0,0-.87-.22-1a3.08,3.08,0,0,0-.76-.11,2.73,2.73,0,0,0-1.59.23c-.8.38-1.69.55-2.51.88a7.89,7.89,0,0,0-1.5.84,12.13,12.13,0,0,1-2.56,1.67A9.7,9.7,0,0,0,49,49a16.1,16.1,0,0,1-4.15,1.5c-1,.27-2,.72-3,1.05-1.29.42-2.59.84-3.9,1.2a7.51,7.51,0,0,0-2.65,1.78l0,.14.7-.09c.31,0,.55,0,.57.4a4.57,4.57,0,0,1-.93,3.37,3.92,3.92,0,0,1-.37.34l-.14-.1a2.92,2.92,0,0,1,.14-.38,7.14,7.14,0,0,0,.53-1.12c.15-.49-.19-.8-.63-.54A7.49,7.49,0,0,0,33.35,58a8.6,8.6,0,0,1-2.9,2.11,2.51,2.51,0,0,1-.54.16l2.37-2.7-.1-.13c-.89.39-1.75.85-2.66,1.19a8.47,8.47,0,0,1-2.89.94l1.91-1.47-.05-.14h-1c.17-.29.22-.54.37-.63a1.4,1.4,0,0,0,.63-1.6c0-.35-.09-.7-.14-1.14-1.24.84-2.43,1.59-3.54,2.45s-2.13,1.9-3.25,2.77-2.45,1.72-3.68,2.57l-.11-.08.58-.82-6.06,3.72-.08-.13,2.26-1.64-.07-.13a16.82,16.82,0,0,0-1.52.79c-.5.31-1,.7-1.46,1,.07-.63.76-.62,1.09-1a1.92,1.92,0,0,0-.32-.58c-.38-.33-.22-.6,0-.86a12,12,0,0,0,1.23-1.32l-1.88,1.09-.11-.19,5.64-3.75-.06-.07L6.3,62.5l0-.07,1.06-.65,0-.09-.47.07,0-.09c.57-.33,1.15-.66,1.71-1A9.35,9.35,0,0,0,9.58,60a13.33,13.33,0,0,1,3.61-2c1.5-.58,3-1.3,4.41-2,1-.49,2.08-1,3.12-1.54.59-.29,1.2-.56,1.78-.88.17-.09.26-.33.38-.5a1.86,1.86,0,0,0-.58.11l-8.91,4.29a1.06,1.06,0,0,1-.37.1c3-1.82,6.18-3.14,9-5.21-2.09.89-4.21,1.73-6.26,2.7s-4,2.09-6.05,3.14l-.09-.14c.22-.16.44-.32.67-.47,4.57-2.81,9.15-5.6,13.7-8.44a39.94,39.94,0,0,0,5.67-4.63c.54-.49,1.13-.91,1.64-1.42a5.69,5.69,0,0,0,.9-1.32,1.88,1.88,0,0,1-1.84-.53,6,6,0,0,1-.52-.88c-.14-.27-.24-.57-.4-.83-.32-.56-.68-1.09-1-1.65-.13-.23-.27-.35-.51-.17s-.49.07-.7-.14-.52-.48-.79-.72a1.78,1.78,0,0,1-.64-1.62c0-.32-.35-.71-.62-1-.49-.54-1.05-1-1.55-1.56a.48.48,0,0,1,.28-.85c.32-.06.65,0,1-.1s.68-.21,1-.31l0-.26a5.22,5.22,0,0,0-1.57-.07,4.4,4.4,0,0,1-3.51-.7,7.29,7.29,0,0,1-2.07-1.63,4.8,4.8,0,0,1-.29-.54h1l.07-.13L18.39,27h.53a1.65,1.65,0,0,0-1.37-.58A6.17,6.17,0,0,1,13,24.16c-.34-.38-.58-.86-.93-1.21A9.34,9.34,0,0,0,11,22.21c-.09-.06-.12-.19-.19-.3l.33-.13a1.58,1.58,0,0,0,.31.27c.47.22,1,.4,1.43.63a15,15,0,0,0,7,1.37A.86.86,0,0,0,20.1,24a2.85,2.85,0,0,0-.77-.24,48.14,48.14,0,0,1-7.68-1.9,1.81,1.81,0,0,0-.52-.07c-.31-.22-.61-.44-.92-.64S9.06,20.47,9,20.43l-.4-.5h.92c2.52.37,5,.86,7.51,1.3l.05-.2-.91-.39-2.09-.9c-2.45-1-2.52-1-3.45-1.45L8.76,17.2c-1.31-.77-2.37-2.07-3.83-2.49a1.15,1.15,0,0,1-.55-.66c0-.17-.26-.3-.32-.54a1.64,1.64,0,0,0-.12-.4A1.21,1.21,0,0,1,3.86,12.33ZM38.1,52.05,37.88,52c-.23.08-.45.14-.67.24-1.38.6-2.89,1-4,2.13a3,3,0,0,1-.71.39l-.18-.23,1.22-1c-1.91.44-2.35,1.09-1.92,2.48Z" transform="translate(-1.97 -3.04)"/><path class="cls-1" d="M47.35,33.74s-.07,0-.05,0a1.11,1.11,0,0,0,.37-.05,18.25,18.25,0,0,0,2.64-1.36,28.28,28.28,0,0,1,8.19-4.3c1-.29,1.79-.88,2.73-1.21a8.44,8.44,0,0,0,3-1.72c1.1-1,2.15-2.08,3.16-3.18.66-.71,1.22-1.52,1.89-2.38a25.14,25.14,0,0,1-2.84,6.07,7.26,7.26,0,0,0,.63-.46,11.82,11.82,0,0,0,3-4.05,33.15,33.15,0,0,0,1.79-5.9c0-.13.05-.25.08-.37s0,0,.11-.1l.15,2.72.09.05L73,15.83l.17.06-.87,3.17.26.11,2.22-4.26-.16,1.14.13.07c.29-.51.62-1,.87-1.54A9.34,9.34,0,0,0,76.32,11c.07-.89.15-1.78.23-2.68h.17v4.3l.14,0,1-3.87.16,0c-.06.48-.09,1-.19,1.45q-.66,3-1.37,6a11.22,11.22,0,0,1-2.92,4.94c-.66.73-1.31,1.48-1.94,2.24a2,2,0,0,0-.23.57l1.33-.95.11.1a4,4,0,0,1-.37.54,24.65,24.65,0,0,1-1.71,1.82c-1.42,1.27-2.88,2.49-4.32,3.73-.71.61-1.42,1.22-2.1,1.85a12.3,12.3,0,0,1-3.86,2.29,7.73,7.73,0,0,0-3.85,3.34,11.08,11.08,0,0,1-.93,1.41c-.1.12-1.2,1.8-1.34,1.73-1.31.33-5.22-.43-5.22-.43a1.07,1.07,0,0,0-.11-.87c-.22-.33-1,.11-2.39-1,0,0-1-.88-1.2-1.09-.43-.47-.68-.88-1.1-1.42" transform="translate(-1.97 -3.04)"/></svg>